<?xml version="1.0" encoding="UTF-8"?>
<svg width="28px" height="28px" viewBox="0 0 28 28" version="1.1" xmlns="http://www.w3.org/2000/svg" xmlns:xlink="http://www.w3.org/1999/xlink">
    <!-- Generator: Sketch 42 (36781) - http://www.bohemiancoding.com/sketch -->
    <title>CikrusSideBarLogo</title>
    <desc>Created with Sketch.</desc>
    <defs></defs>
    <g id="Page-1" stroke="none" stroke-width="1" fill="none" fill-rule="evenodd">
        <g id="logo">
            <path d="M13.9829839,0.0340134228 C6.26043356,0.0340134228 -9.39597317e-06,6.29445638 -9.39597317e-06,14.0170067 C-9.39597317e-06,21.739557 6.26043356,28 13.9829839,28 C21.7055342,28 27.9659772,21.739557 27.9659772,14.0170067 C27.9659772,6.29445638 21.7055342,0.0340134228 13.9829839,0.0340134228 M13.9829839,2.69899329 C20.2236953,2.69899329 25.3009034,7.7762953 25.3009034,14.0170067 C25.3009034,20.2577181 20.2236953,25.3350201 13.9829839,25.3350201 C7.74227248,25.3350201 2.66506443,20.2577181 2.66506443,14.0170067 C2.66506443,7.7762953 7.74227248,2.69899329 13.9829839,2.69899329" id="Fill-17" fill="#098ACB"></path>
            <path d="M15.1694772,20.0363573 C14.8004163,20.1086718 14.4202481,20.1494017 14.0305593,20.1494017 C13.6408706,20.1494017 13.2606091,20.1086718 12.8915482,20.0363573 C12.0905162,19.8793773 11.3452073,19.5627775 10.6924904,19.1165396 C10.0583478,18.683124 9.51073011,18.12997 9.08165248,17.4894163 C8.63988081,16.8301005 8.32654306,16.0772567 8.17104093,15.2681263 C8.09945021,14.8953343 8.05912792,14.5113226 8.05912792,14.1176942 C8.05912792,13.7239715 8.09945021,13.3399598 8.17104093,12.9671678 C8.32644973,12.1580375 8.63988081,11.4052879 9.08165248,10.7458778 C9.51073011,10.1053241 10.0583478,9.5521701 10.6924904,9.11875456 C11.3452073,8.67261091 12.0905162,8.35601108 12.8915482,8.19893684 C13.2606091,8.12662235 13.6408706,8.08589241 14.0305593,8.08589241 C14.4202481,8.08589241 14.8004163,8.12662235 15.1694772,8.19893684 C15.9705092,8.35601108 16.7157247,8.67251663 17.368535,9.11875456 C18.0026776,9.5521701 18.5502952,10.1053241 18.9793729,10.7458778 L21.1764706,9.24895836 C20.5573555,8.32357799 19.7665908,7.52491297 18.8504722,6.89944447 C17.9082189,6.2562509 16.8320246,5.80030189 15.6745324,5.57430732 C15.1419423,5.47031399 14.5932045,5.41176471 14.0305593,5.41176471 C13.4678208,5.41176471 12.9190831,5.47031399 12.3864929,5.57430732 C11.2290007,5.80030189 10.1528065,6.2562509 9.21055311,6.89953875 C8.29434124,7.52491297 7.50366981,8.32357799 6.88455476,9.24895836 C6.24779871,10.2007378 5.79641315,11.2878122 5.57268048,12.4570065 C5.46972799,12.9949811 5.41176471,13.5492665 5.41176471,14.1176942 C5.41176471,14.6860277 5.46972799,15.2403131 5.57268048,15.7782876 C5.79641315,16.9474819 6.24779871,18.0346506 6.88455476,18.9863358 C7.50366981,19.9118104 8.29434124,20.7103811 9.21055311,21.3358497 C10.1528065,21.9790432 11.2290007,22.4349922 12.3864929,22.6609868 C12.9190831,22.7649801 13.4679142,22.8235294 14.0305593,22.8235294 C14.5932045,22.8235294 15.1419423,22.7649801 15.6745324,22.6609868 C16.8320246,22.4349922 17.9082189,21.9791375 18.8504722,21.3358497 C19.7665908,20.7104754 20.5573555,19.9118104 21.1764706,18.98643 L18.9793729,17.4894163 C18.5502952,18.12997 18.0026776,18.683124 17.368535,19.1165396 C16.7157247,19.5627775 15.9705092,19.8793773 15.1694772,20.0363573" id="Fill-20" fill="#010201"></path>
            <path d="M17.4117647,14 C17.4117647,15.8842558 15.8842558,17.4117647 14,17.4117647 C12.1157442,17.4117647 10.5882353,15.8842558 10.5882353,14 C10.5882353,12.1157442 12.1157442,10.5882353 14,10.5882353 C15.8842558,10.5882353 17.4117647,12.1157442 17.4117647,14 Z M15.7647059,13.1764706 C15.7647059,12.6566724 15.3433063,12.2352941 14.8234818,12.2352941 C14.3037525,12.2352941 13.8823529,12.6566724 13.8823529,13.1764706 C13.8823529,13.6962688 14.3037525,14.1176471 14.8234818,14.1176471 C15.3433063,14.1176471 15.7647059,13.6962688 15.7647059,13.1764706 Z" id="Combined-Shape" fill="#ED1C24"></path>
        </g>
        <g id="CikrusSideBarLogo"></g>
    </g>
</svg>