<svg xmlns="http://www.w3.org/2000/svg" viewBox="0 0 23.50172 23.5009">
  <defs>
    <style>
      .e9307ef8-7ccb-446f-9861-5876a5101927 {
        fill: none;
        stroke: #ff0914;
        stroke-linecap: round;
        stroke-linejoin: round;
        stroke-width: 1.5px;
      }
    </style>
  </defs>
  <title>Recurso 22</title>
  <g id="bcb744dc-4df7-44b8-b33d-6d8a1d7f0b2d" data-name="Capa 2">
    <g id="a4c76772-83e7-4dce-a6e0-190b0eef43b3" data-name="Capa 1">
      <g>
        <line class="e9307ef8-7ccb-446f-9861-5876a5101927" x1="7.74763" y1="15.74855" x2="15.74763" y2="7.74855"/>
        <path class="e9307ef8-7ccb-446f-9861-5876a5101927" d="M11.74463,7.74855v-.4082a4.41224,4.41224,0,0,1,1.294-3.125l2.17179-2.1719a4.41825,4.41825,0,0,1,6.2471,0h0a4.41753,4.41753,0,0,1,0,6.248l-2.17189,2.1719a4.40729,4.40729,0,0,1-3.123,1.293h-.415"/>
        <path class="e9307ef8-7ccb-446f-9861-5876a5101927" d="M11.75732,15.75045v.4102a4.40874,4.40874,0,0,1-1.2939,3.125l-2.1719,2.1718a4.41934,4.41934,0,0,1-6.248,0h0a4.41918,4.41918,0,0,1,0-6.248l2.1718-2.1719a4.40808,4.40808,0,0,1,3.1241-1.293h.414"/>
      </g>
    </g>
  </g>
</svg>
