<svg xmlns="http://www.w3.org/2000/svg" viewBox="0 0 85 87.16715">
  <defs>
    <style>
      .e2ff69af-675e-4f39-a5c4-a3b64745ed69 {
        fill: #ff0914;
      }

      .f9b2b04e-63ee-4595-bacc-eb278c458f7a {
        fill: #fff;
      }
    </style>
  </defs>
  <title>Recurso 28</title>
  <g id="f9cfa853-22b0-4ca4-9208-ea090914fc7f" data-name="Capa 2">
    <g id="a1e7af98-d74a-4ed1-bf75-25bd5620d637" data-name="Capa 1">
      <g>
        <polygon class="e2ff69af-675e-4f39-a5c4-a3b64745ed69" points="3.926 43.584 0 53.282 7.736 60.322 8.424 70.76 18.45 73.744 23.585 82.859 33.912 81.199 42.5 87.167 51.088 81.199 61.416 82.859 66.55 73.744 76.576 70.759 77.264 60.322 85 53.282 81.074 43.584 85 33.885 77.264 26.845 76.576 16.408 66.55 13.423 61.415 4.308 51.088 5.968 42.5 0 33.912 5.968 23.584 4.308 18.45 13.423 8.424 16.408 7.736 26.845 0 33.885 3.926 43.584"/>
        <path class="f9b2b04e-63ee-4595-bacc-eb278c458f7a" d="M8.41213,49.67231H7.19831a.47849.47849,0,0,1,0-.95583h.12124v-9.1776H7.19831a.48645.48645,0,0,1,0-.97086H8.41213a.48679.48679,0,0,1,.273.86465l3.48869,3.44362a.51171.51171,0,0,1,.04608.68279.45279.45279,0,0,1-.66779.09118L8.27539,40.37349v8.343h.13674a.47851.47851,0,0,1,0,.95583M15.01081,39.4477l-2.83695,2.837.28806.273a.85114.85114,0,0,1,.28854.48593l2.66961-2.67011v8.343h-.12123a.47806.47806,0,0,0,0,.95583h1.1988a.47806.47806,0,0,0,0-.95583h-.12172v-9.1776h.12172a.48582.48582,0,0,0,0-.97086h-1.1988a.49767.49767,0,0,0-.288.87968m5.31.07615h.1212a.47807.47807,0,0,0,0-.95584H19.24372a.47806.47806,0,0,0,0,.95584H19.365v9.19261h-.12123a.47806.47806,0,0,0,0,.95585H20.442a.47807.47807,0,0,0,0-.95585h-.1212ZM29.80242,49.6724a.45281.45281,0,0,0,.45436-.48543v-.6828a.478.478,0,0,0-.95483,0v.2124h-4.5968a.92748.92748,0,0,1-1.62311.01553.48189.48189,0,0,0,.12124.9403ZM24.371,39.524h.12173a.47849.47849,0,0,0,0-.95583H23.27889a.47847.47847,0,0,0,0,.95583h.13677c0,2.92761-.01553,5.85522,0,8.76781a.47781.47781,0,0,0,.95535,0Zm7.874,10.14846a.48185.48185,0,0,1-.12124-.94029.94366.94366,0,0,0,.83409.46989.95359.95359,0,0,0,.789-.48543h4.59631v-.21241a.47824.47824,0,0,1,.95535,0V49.187a.45318.45318,0,0,1-.45488.48543Zm1.16825-1.38065a.47806.47806,0,0,1-.95584,0c-.01553-2.91259,0-5.8402,0-8.76781h-.13677a.47849.47849,0,0,1,0-.95583h1.21382a.47851.47851,0,0,1,0,.95583h-.12121Zm9.58724-8.76765H47.8097v.21239a.47822.47822,0,0,0,.95532,0v-.66777a.4484.4484,0,0,0-.45485-.50047H41.84776a.47807.47807,0,0,0,0,.95585h.19737v9.19212h-.19737a.47832.47832,0,0,0,0,.95633h6.46241a.45318.45318,0,0,0,.45485-.48542v-.68282a.47822.47822,0,0,0-.95532,0v.21191H43.00049V44.98462a.93767.93767,0,0,1,0-1.72882ZM48.77294,44.606a.48642.48642,0,0,0,0-.97086H45.07135a.48645.48645,0,0,0,0,.97086Zm3.31535,4.11043V45.349a.94313.94313,0,0,1-.42532-1.39568.9127.9127,0,0,1,.42532-.33363V39.52385h2.39659a2.24573,2.24573,0,1,1,0,4.4901h-2.078a.4785.4785,0,0,0,0,.95584h1.01645L56.41155,48.732a.49153.49153,0,0,0,.16682.94031H57.7762a.47806.47806,0,0,0,0-.95585h-.16634l-2.9732-3.74667a3.29644,3.29644,0,0,0,2.12358-.91025A3.21592,3.21592,0,0,0,54.48488,38.568H50.93507a.47807.47807,0,0,0,0,.95584h.19737v9.19261h-.12172a.4785.4785,0,0,0,0,.95585h1.1988a.47807.47807,0,0,0,0-.95585Zm18.41021-9.1923h4.80921v.21239a.47822.47822,0,0,0,.95532,0v-.66777a.44813.44813,0,0,0-.45485-.50047h-6.4624a.47806.47806,0,0,0,0,.95585h.19736V48.7323h-.12123a.47779.47779,0,0,0,0,.95534H70.6197a.4778.4778,0,0,0,0-.95534h-.1212V44.98462a.91012.91012,0,0,1-.42434-.33364.94537.94537,0,0,1,.42434-1.39518ZM76.271,44.606a.48645.48645,0,0,0,0-.97086H72.56936a.48645.48645,0,0,0,0,.97086Zm-14.8083,4.66275L66.485,38.67547a.25067.25067,0,0,0-.453-.21477L61.00963,49.05426a.25062.25062,0,0,0,.453.21452ZM20.152,64.01712h.65424a1.32312,1.32312,0,0,1,1.317,1.12716.27459.27459,0,0,1,.27351-.02255,1.60239,1.60239,0,0,0-1.61259-1.38215h-.96734a.1388.1388,0,0,0,0,.27754h.05708v2.67813h-.05708a.13905.13905,0,0,0,0,.278h.95832a1.61495,1.61495,0,0,0,1.63916-1.6171.13685.13685,0,0,0-.27354,0,1.33509,1.33509,0,0,1-1.35208,1.33906H20.152Zm4.62,1.08729a.27325.27325,0,0,0,0,.504v1.08709h1.40021v-.06163a.1394.1394,0,0,1,.27851,0v.19838a.13113.13113,0,0,1-.13224.14077H24.43629a.13879.13879,0,0,1,0-.27752h.05761V64.01732h-.05761a.139.139,0,0,1,0-.278h1.88212a.13.13,0,0,1,.13224.14577v.19438a.13944.13944,0,0,1-.27851,0v-.06212H24.77193Zm.09271.39324a.14155.14155,0,0,1,0-.28254h1.078a.14155.14155,0,0,1,0,.28254Zm5.04813,1.28552a.13862.13862,0,0,1-.256.1062l-1.17076-2.876h-.022a.13955.13955,0,0,1,0-.279h.34869a.13957.13957,0,0,1,0,.279h-.02205Zm.86167-2.76982h-.02205a.13957.13957,0,0,1,0-.279h.34915a.13956.13956,0,0,1,0,.279H31.079L30.001,66.65492l-.15031-.37071Zm2.74568,1.09106a.27359.27359,0,0,0,0,.504v1.08709h1.40069v-.06163a.13941.13941,0,0,1,.27852,0v.19838a.13155.13155,0,0,1-.13276.14077H33.185a.13879.13879,0,0,1,0-.27752h.05712V64.01732H33.185a.139.139,0,0,1,0-.278h1.8816a.13043.13043,0,0,1,.13276.14577v.19438a.13945.13945,0,0,1-.27852,0v-.06212H33.52012Zm.09319.39324a.14153.14153,0,0,1,0-.28254h1.07754a.14153.14153,0,0,1,0,.28254Zm3.70034,1.47563a.14046.14046,0,0,1-.03507-.274.27439.27439,0,0,0,.243.13727.27836.27836,0,0,0,.22993-.14127H39.09v-.06162a.13944.13944,0,0,1,.27855,0v.19889a.13182.13182,0,0,1-.13276.14076Zm.34016-.40178a.13907.13907,0,0,1-.27806,0c-.0045-.84812,0-1.70126,0-2.55439h-.04006a.13892.13892,0,0,1,0-.27753h.35368a.13891.13891,0,0,1,0,.27753h-.03556Zm6.06433-.07093a1.61832,1.61832,0,1,0-2.2889-2.28839,1.51722,1.51722,0,0,0-.278.3667.28773.28773,0,0,1,.252.11472,1.15424,1.15424,0,0,1,.22042-.287,1.33783,1.33783,0,1,1-.32662.52551c.0045-.01754.009-.03056.013-.04409a.13547.13547,0,1,0-.256-.08867.49235.49235,0,0,0-.031.08416,1.62038,1.62038,0,0,0,2.69517,1.6171m2.71147.19468v-.98087a.27139.27139,0,0,1-.11974-.40679.23978.23978,0,0,1,.11974-.09668V64.01712h.69784a.65879.65879,0,0,1,.4684,1.12716.65886.65886,0,0,1-.4684.18135h-.60516a.13919.13919,0,0,0,0,.278h.60516a.92765.92765,0,0,0,.66277-.265.93631.93631,0,0,0-.66277-1.59908H46.09394a.13889.13889,0,0,0,0,.27754h.05712v2.67813H46.116a.13917.13917,0,0,0,0,.278h.34869a.13905.13905,0,0,0,0-.278Zm3.84156.27773H49.918a.13889.13889,0,0,1,0-.27754h.03507V64.02232H49.918a.14179.14179,0,0,1,0-.283h.35315a.14145.14145,0,0,1,.07917.25148l1.017,1.00292a.15016.15016,0,0,1,.013.19939.13241.13241,0,0,1-.1949.02655l-.95431-.95483v2.43065h.04005a.13891.13891,0,0,1,0,.27754m1.92172-2.97722-.82559.82559.08366.08016a.25.25,0,0,1,.08414.14128l.777-.778v2.43065H52.277a.13881.13881,0,0,0,0,.27754h.34918a.13881.13881,0,0,0,0-.27754h-.03559V64.02232h.03559a.14165.14165,0,0,0,0-.283H52.277a.14518.14518,0,0,0-.08414.25648m2.90966,1.10865a.27336.27336,0,0,0,0,.504v1.08709h1.4007v-.06163a.13941.13941,0,0,1,.27852,0v.19838a.13156.13156,0,0,1-.13277.14077H54.76692a.13879.13879,0,0,1,0-.27752h.0576V64.01732h-.0576a.139.139,0,0,1,0-.278H56.649a.13071.13071,0,0,1,.13277.14577v.19438a.13945.13945,0,0,1-.27852,0v-.06212h-1.4007Zm.0932.39324a.14153.14153,0,0,1,0-.28254h1.07753a.14153.14153,0,0,1,0,.28254Zm4.00071,1.19744h.03507a.13915.13915,0,0,1,0,.278h-.35318a.13919.13919,0,0,1,0-.278h.03556V64.01746H58.8563a.13917.13917,0,0,1,0-.278h.1989a.13306.13306,0,0,1,.12371.07063q.41782.67632.83513,1.35209a.27331.27331,0,0,0-.239.14579l-.57859-.9413Zm1.88212.278H60.8932a.14551.14551,0,0,1-.13274-.07063l-.86114-1.39617c-.09721-.1503.13224-.3136.22491-.15881l.62321.99842V64.01746h-.03507a.13915.13915,0,0,1,0-.278H61.061a.13906.13906,0,0,1,0,.278H61.026v2.67763h.05262a.13906.13906,0,0,1,0,.278m2.27355-2.95566v.06213a.13946.13946,0,0,1-.27854,0V63.8802a.13321.13321,0,0,1,.13725-.14077h2.25335a.13171.13171,0,0,1,.13224.14077v.19939a.13919.13919,0,0,1-.278,0v-.06213H64.576a.27592.27592,0,0,0-.47742,0Zm.80856,2.95566a.13917.13917,0,0,1,0-.278h.035V64.1417a.13942.13942,0,0,1,.27855,0v2.55339h.03507a.139.139,0,0,1,0,.278Z"/>
      </g>
    </g>
  </g>
</svg>
